<svg width="180" height="43" viewBox="0 0 180 43" fill="none" xmlns="http://www.w3.org/2000/svg">
<path fill-rule="evenodd" clip-rule="evenodd" d="M42.2287 12.793C41.714 11.6465 41.1094 10.5663 40.4133 9.55572C33.3297 14.1051 24.0266 19.5689 12.2223 25.1687C24.5724 20.775 35.0967 18.0232 43.3998 16.2058C43.1269 15.0593 42.7348 13.9112 42.2287 12.793ZM40.0178 33.1027C37.5754 34.7942 34.9119 36.2521 32.0463 37.4383C26.2444 39.8389 20.0797 40.9092 14.1171 40.7733H14.0567C14.2277 40.8313 14.39 40.8992 14.561 40.9489C14.713 41.0069 14.8633 41.0649 15.0153 41.1146C16.2659 41.5222 17.5579 41.8154 18.8689 41.9993C19.1107 42.039 19.3525 42.0672 19.5857 42.0871C19.6358 42.107 19.6772 42.107 19.7273 42.107C19.9692 42.1269 20.211 42.155 20.4545 42.165C20.7171 42.1848 20.9796 42.2031 21.2508 42.213C24.4186 42.3389 27.6383 41.8055 30.6852 40.5414C31.4211 40.2399 32.1379 39.8903 32.834 39.5109C33.0654 39.385 33.2883 39.2574 33.5197 39.1216C33.6009 39.0735 33.6804 39.0238 33.7512 38.9758C33.9533 38.8499 34.1657 38.7223 34.3661 38.5864C35.0415 38.1491 35.6875 37.6819 36.3041 37.1766C36.5062 37.0109 36.7083 36.8369 36.9087 36.6613C37.1004 36.4857 37.3025 36.3118 37.4838 36.1362C37.6756 35.9523 37.8673 35.7667 38.0487 35.5828C38.4114 35.2134 38.7655 34.834 39.0989 34.4364C39.4426 34.047 39.7656 33.6395 40.0471 33.2203C40.1283 33.1226 40.1991 33.0265 40.2596 32.9287L40.0178 33.1044V33.1027ZM3.63421 32.7034C4.62222 34.1431 5.77259 35.4453 7.05424 36.5835C13.6732 33.9493 25.0353 28.9128 31.6629 23.0514C18.6564 27.3671 14.238 28.5931 3.63248 32.7051L3.63421 32.7034ZM43.994 20.1438C38.9486 23.9841 30.1912 29.8754 15.6406 37.7399C25.8523 35.495 32.0567 33.2386 42.8833 27.8244C42.8833 27.8144 42.8937 27.8144 42.8937 27.8144V27.7846C42.9939 27.503 43.0751 27.2296 43.1666 26.948C43.2478 26.6663 43.3273 26.3847 43.3981 26.1014C43.4689 25.8197 43.5293 25.5282 43.5898 25.2465C43.6503 24.9549 43.7003 24.6733 43.7504 24.3817C43.842 23.8085 43.9111 23.2353 43.9629 22.6504V22.6206C43.9836 22.329 44.0026 22.0375 44.013 21.7359C44.0233 21.5322 44.0337 21.3284 44.0233 21.123C44.0337 20.7916 44.0337 20.452 44.0233 20.1223C44.013 20.1322 44.0026 20.1422 43.9923 20.1422L43.994 20.1438ZM24.5016 0.153822C24.3098 0.124001 24.1181 0.105781 23.9264 0.0958409C23.5135 0.047796 23.099 0.0279202 22.6862 0.0179798C19.5684 -0.107931 16.4006 0.425518 13.3623 1.67966C12.8268 1.90331 12.3035 2.13692 11.7991 2.40862C11.5573 2.53453 11.3155 2.65216 11.0719 2.78801C10.5969 3.04978 10.1444 3.32313 9.69008 3.61472C9.45862 3.76051 9.2358 3.90629 9.02334 4.06202C9.00262 4.07196 8.98362 4.08192 8.97325 4.10014C8.7608 4.24593 8.56043 4.40165 8.34797 4.55738C7.70197 5.03452 7.10606 5.53982 6.54123 6.09316C6.38923 6.22902 6.23896 6.37481 6.08696 6.53054C5.98677 6.61835 5.90559 6.70616 5.81405 6.80225C5.69314 6.9381 5.57223 7.06401 5.44095 7.20152C5.08859 7.58091 4.75522 7.97851 4.44258 8.38772C4.28194 8.5915 4.12994 8.79529 3.97794 9.00072C3.82594 9.21444 3.67567 9.4182 3.53403 9.63192C3.38203 9.84564 3.24212 10.0594 3.12121 10.2731C2.98993 10.4868 2.85866 10.7105 2.72739 10.9341C2.4752 11.3715 2.24375 11.8287 2.02093 12.286C1.90001 12.5395 1.78947 12.7913 1.6772 13.0448C5.68277 8.75719 10.8094 5.2764 16.6407 2.86587C19.5062 1.67966 22.4323 0.824786 25.379 0.269785C25.0871 0.22174 24.7935 0.181986 24.5016 0.153822ZM0.00172729 20.949C-0.00863643 22.6206 0.183092 24.3121 0.616641 25.9954C11.0287 21.4062 14.9946 19.1614 27.203 13.0464C18.1935 13.6495 6.52914 18.1508 0 20.9507L0.00172729 20.949ZM31.2207 1.95302C19.7377 5.78336 13.8062 8.55339 5.11795 14.1249C20.99 9.39004 31.4228 7.32908 37.7896 6.42617C35.893 4.53916 33.6527 3.04314 31.2207 1.95302Z" fill="white"/>
<path d="M89.8529 23.9364C88.763 23.769 87.8389 23.2306 86.9632 22.4851C86.0166 21.6799 85.628 20.2767 85.628 18.8602V4.21144C85.628 3.42284 84.7108 2.75684 83.8886 2.75684H81.6449C80.8227 2.75684 80.1542 3.39799 80.1542 4.18659V18.8353C80.1542 21.6385 81.1992 24.0672 83.2582 26.0537C85.0304 27.7634 87.053 28.7193 89.4401 28.9778C89.4971 28.9844 89.5541 28.9877 89.6094 28.9877C90.4316 28.9877 91.1018 28.3449 91.1018 27.5563V25.3479C91.1018 24.6421 90.5767 24.0507 89.8529 23.9397V23.9364Z" fill="white"/>
<path d="M178.751 23.9364C177.661 23.769 176.737 23.2306 175.861 22.4851C174.915 21.6799 174.526 20.2767 174.526 18.8602V4.21144C174.526 3.42284 173.609 2.75684 172.787 2.75684H170.543C169.721 2.75684 169.052 3.39799 169.052 4.18659V18.8353C169.052 21.6385 170.097 24.0672 172.156 26.0537C173.929 27.7634 175.951 28.7193 178.338 28.9778C178.395 28.9844 178.452 28.9877 178.508 28.9877C179.33 28.9877 180 28.3449 180 27.5563V25.3479C180 24.6421 179.475 24.0507 178.751 23.9397V23.9364Z" fill="white"/>
<path d="M104.17 8C101.167 8 98.5637 9.03546 96.4357 11.0749C94.2783 13.1458 93.2298 15.5712 93.2298 18.4937C93.2298 21.4161 94.2783 23.8432 96.4357 25.9125C98.593 27.9817 101.124 28.9874 104.17 28.9874C107.217 28.9874 109.748 27.9817 111.905 25.9108C114.033 23.8697 115.111 21.3747 115.111 18.4937C115.111 15.6126 114.063 13.1458 111.905 11.0749C109.746 9.00564 107.217 8 104.17 8ZM108.081 22.2461C107.001 23.2816 105.685 23.8068 104.17 23.8068C102.656 23.8068 101.339 23.2816 100.26 22.2445C99.1803 21.209 98.6328 19.9483 98.6328 18.4937C98.6328 17.0391 99.1803 15.7452 100.26 14.7097C101.339 13.6743 102.656 13.1491 104.17 13.1491C105.685 13.1491 107.001 13.6743 108.083 14.7097C109.162 15.7452 109.71 17.0192 109.71 18.4937C109.71 19.9681 109.162 21.209 108.083 22.2445L108.081 22.2461Z" fill="white"/>
<path d="M165.67 17.6487C165.65 17.3952 165.622 17.1451 165.589 16.9015C165.515 16.3846 165.403 15.881 165.251 15.3923C165.221 15.2912 165.189 15.1885 165.152 15.0907C165.083 14.8952 165.009 14.6997 164.928 14.5076C164.394 13.2584 163.586 12.1136 162.489 11.0616C160.335 8.99068 157.803 7.9834 154.751 7.9834C153.662 7.9834 152.621 8.12091 151.617 8.39758L151.536 8.42409C150.83 8.61627 150.152 8.87471 149.5 9.18286C149.496 9.18286 149.491 9.18618 149.487 9.18784C148.594 9.66166 147.758 10.2713 146.983 11.0152C144.838 13.0729 143.768 15.5496 143.768 18.4522C143.768 19.3767 143.876 20.263 144.098 21.1013C144.56 22.8922 145.522 24.486 146.983 25.8859C148.852 27.6785 151.054 28.6874 153.595 28.9144C153.88 28.9409 154.167 28.9575 154.452 28.9658C154.545 28.9691 154.638 28.9691 154.733 28.9691C154.901 28.9691 155.067 28.9658 155.231 28.9575C155.338 28.9542 155.443 28.9492 155.552 28.9409C155.687 28.9326 155.818 28.921 155.953 28.9061C156.084 28.8912 156.219 28.878 156.352 28.8581C156.483 28.8415 156.616 28.8183 156.744 28.7951C156.875 28.7719 157.008 28.7471 157.136 28.7206C157.25 28.6974 157.36 28.6725 157.471 28.6394C157.569 28.6162 157.668 28.5913 157.765 28.5615C157.899 28.5267 158.034 28.487 158.165 28.4439C158.297 28.4008 158.43 28.3545 158.561 28.3081C158.725 28.2484 158.884 28.1838 159.046 28.1192C159.176 28.0645 159.304 28.0065 159.433 27.9469C159.473 27.9303 159.511 27.9088 159.552 27.8889C159.981 27.6851 160.404 27.4515 160.813 27.1881V28.0778C160.813 28.5698 161.23 28.9691 161.743 28.9691H164.765C165.278 28.9691 165.695 28.5698 165.695 28.0778V18.4539C165.695 18.1805 165.686 17.9138 165.667 17.6487H165.67ZM150.859 22.1649C149.774 21.1245 149.247 19.9101 149.247 18.4522C149.247 16.9943 149.774 15.7418 150.859 14.7031C151.944 13.6626 153.212 13.1573 154.733 13.1573C156.255 13.1573 157.519 13.6626 158.604 14.7031C159.689 15.7435 160.216 16.9694 160.216 18.4522C160.216 19.935 159.689 21.1245 158.604 22.1649C157.519 23.2053 156.252 23.7107 154.733 23.7107C153.215 23.7107 151.944 23.2053 150.859 22.1649Z" fill="white"/>
<path d="M140.096 15.8828C139.642 14.0903 138.683 12.5081 137.21 11.0916C135.189 9.15322 132.838 8.1476 130.045 8.02997C129.86 8.02169 129.674 8.01836 129.482 8.01836C129.221 8.01836 128.964 8.02665 128.707 8.04156C128.596 8.04653 128.485 8.05647 128.375 8.06807C128.351 8.07138 128.325 8.07139 128.301 8.07305C128.194 8.08464 128.085 8.09624 127.978 8.11115C127.893 8.11943 127.814 8.13102 127.729 8.14593C127.675 8.1509 127.624 8.16085 127.57 8.16913C127.554 8.16913 127.541 8.17245 127.522 8.17742C127.314 8.2089 127.109 8.24865 126.908 8.29504C125.855 8.53692 124.932 8.913 123.995 9.4564V4.21785C123.995 3.4044 123.312 2.75 122.464 2.75L120.051 2.76325C119.21 2.76325 118.521 3.41765 118.521 4.2311V18.5054C118.521 21.3881 119.599 23.8815 121.721 25.9242C123.746 27.8593 126.097 28.8649 128.89 28.9825C129.085 28.9875 129.282 28.9941 129.482 28.9941C129.625 28.9941 129.772 28.9908 129.914 28.9858C129.995 28.9825 130.076 28.9809 130.154 28.9742C130.247 28.9693 130.334 28.9626 130.408 28.9577C130.417 28.9577 130.432 28.9577 130.449 28.9543C130.461 28.9543 130.474 28.9544 130.489 28.951C130.501 28.951 130.517 28.9477 130.531 28.9477H130.536C130.548 28.9444 130.56 28.9444 130.572 28.9444C130.581 28.9444 130.589 28.9444 130.596 28.9411C130.62 28.9411 130.641 28.9378 130.662 28.9361H130.665C130.665 28.9361 130.681 28.9361 130.686 28.9328C130.698 28.9328 130.71 28.9328 130.722 28.9295C130.74 28.9262 130.759 28.9262 130.776 28.9245C130.791 28.9212 130.803 28.9212 130.816 28.9196C130.86 28.9146 130.905 28.9113 130.947 28.9047C130.992 28.8997 131.033 28.8964 131.078 28.8897L131.368 28.8467C131.677 28.8003 131.976 28.7406 132.275 28.6711C132.377 28.6479 132.476 28.623 132.577 28.5965C132.709 28.5617 132.838 28.5253 132.966 28.4872C134.529 27.9935 135.934 27.1436 137.208 25.9192C139.335 23.8798 140.412 21.3848 140.412 18.5071C140.412 17.5859 140.307 16.7095 140.095 15.8828H140.096ZM135.001 18.9096C134.908 20.1936 134.369 21.3185 133.389 22.2562C132.781 22.8394 132.102 23.2619 131.349 23.517C131.329 23.5253 131.308 23.5319 131.287 23.5369C131.259 23.5452 131.237 23.5534 131.209 23.5634C131.156 23.58 131.099 23.5982 131.042 23.6114C130.548 23.7489 130.026 23.8185 129.482 23.8185C129.461 23.8185 129.437 23.8185 129.416 23.8152C129.332 23.8185 129.252 23.8152 129.171 23.8102C129.081 23.8069 128.995 23.802 128.907 23.7937C127.598 23.6876 126.463 23.1674 125.53 22.2579C124.464 21.2208 123.917 19.9633 123.917 18.5071C123.917 17.0508 124.464 15.7934 125.53 14.7563C125.746 14.5492 125.971 14.362 126.204 14.1996C126.276 14.1482 126.351 14.0969 126.425 14.0472C127.32 13.464 128.344 13.1691 129.482 13.1691C130.993 13.1691 132.311 13.6943 133.389 14.7281C134.471 15.7652 135.015 17.0376 135.015 18.5104C135.015 18.6446 135.009 18.7804 134.999 18.913L135.001 18.9096Z" fill="white"/>
<path d="M76.0087 26.7541C76.0122 26.6597 76.0087 26.5652 76.0087 26.4691V24.7047V8.13089C76.0087 8.05965 75.9483 8 75.8723 8H71.6905C71.105 8 70.6179 8.40425 70.516 8.93937C70.5039 9.00564 70.497 9.07522 70.497 9.1448C70.497 9.2442 70.3847 9.30715 70.2932 9.25745C68.7248 8.42246 66.9629 8 65.0457 8C62.0385 8 59.4337 9.03545 57.304 11.0798C55.1449 13.1507 54.0947 15.5812 54.0947 18.5053C54.0947 20.1835 54.466 21.7491 55.1984 23.1524C55.3038 23.3578 55.4178 23.5599 55.5404 23.7604C55.8012 24.1878 56.1 24.602 56.4317 24.9996C56.6994 25.321 56.9913 25.6325 57.304 25.9307C57.5527 26.1693 57.8032 26.3896 58.0467 26.5851C58.5666 27.0059 59.1107 27.3721 59.679 27.6835C60.0072 27.8641 60.3457 28.0264 60.6929 28.1706C62.0315 28.7272 63.4859 29.0089 65.0474 29.0089C66.6089 29.0089 68.0166 28.7123 69.3812 28.1474C69.7404 27.9983 70.0945 27.831 70.4382 27.6454C70.4642 27.6322 70.5108 27.6007 70.5367 27.5858V29.93C70.5367 29.9383 70.5367 29.9466 70.535 29.9549C70.4262 30.5463 70.1964 31.108 69.8821 31.6215C69.6402 32.0192 69.3397 32.3903 68.977 32.7382C67.8974 33.7753 66.5812 34.3004 65.0664 34.3004C63.5516 34.3004 62.2354 33.7753 61.1558 32.7382C60.8553 32.4499 60.5944 32.1451 60.3768 31.822C60.2922 31.6961 60.1454 31.6232 59.9899 31.6232H55.0568C54.7407 31.6232 54.5196 31.9164 54.6129 32.2064C55.1189 33.7587 56.0206 35.1487 57.3316 36.4062C59.489 38.4771 62.0195 39.4827 65.0664 39.4827C68.1133 39.4827 70.6438 38.4771 72.8012 36.4062C74.2504 35.0162 75.2142 33.4141 75.6806 31.6232C75.8723 30.8893 75.9898 30.1222 76.0122 29.3237V27.0026C76.0139 26.9363 76.0174 26.8369 76.0122 26.7558L76.0087 26.7541ZM70.4106 19.4612C70.3933 19.5623 70.3709 19.6617 70.3467 19.7611C70.1688 20.4933 69.8199 21.1676 69.3069 21.774C69.2205 21.8784 69.129 21.9794 69.0322 22.0788C68.9925 22.1186 68.9545 22.1583 68.9096 22.2014C68.0408 23.0447 67.001 23.5434 65.8091 23.6875C65.5621 23.719 65.3065 23.7339 65.0474 23.7339C64.7883 23.7339 64.5378 23.719 64.2943 23.6908C63.0921 23.55 62.0678 23.058 61.18 22.1965C61.1455 22.1633 61.1126 22.1302 61.0815 22.097L61.0625 22.0755C60.9693 21.9794 60.8795 21.8833 60.7965 21.7839C60.287 21.1859 59.9381 20.5182 59.755 19.7892C59.7274 19.6782 59.7032 19.5672 59.6824 19.4546C59.6272 19.158 59.5978 18.8383 59.5978 18.5069C59.5978 17.0772 60.1333 15.8346 61.1852 14.8141C62.2509 13.782 63.5153 13.28 65.0491 13.28C66.5829 13.28 67.8473 13.782 68.9131 14.8124C69.9667 15.8346 70.5004 17.0772 70.5004 18.5069C70.5004 18.8383 70.4728 19.158 70.4141 19.4629L70.4106 19.4612Z" fill="white"/>
<path d="M79.7916 33.3467H80.6086V38.1214H79.7916V33.3467Z" fill="white"/>
<path d="M85.9458 33.3467V38.1214H85.2601L82.6744 34.7118V38.1214H81.8746V33.3467H82.6122L85.1444 36.6999V33.3467H85.9441H85.9458Z" fill="white"/>
<path d="M90.4662 34.0773H89.0066V38.1214H88.1896V34.0773H86.73V33.3467H90.4662V34.0773Z" fill="white"/>
<path d="M94.2196 37.3808V38.1214H91.2504V33.3467H94.1401V34.0806H92.0656V35.3281H93.9536V36.0455H92.0656V37.3808H94.2178H94.2196Z" fill="white"/>
<path d="M96.9642 36.3533H96.0194V38.1194H95.2024V33.3447H97.1404C98.099 33.3447 98.8124 33.9743 98.8124 34.8557C98.8124 35.5067 98.4082 36.0253 97.8002 36.2423L98.9489 38.1194H98.0317L96.9625 36.3533H96.9642ZM96.0194 35.6194H97.092C97.6327 35.6194 97.9816 35.298 97.9816 34.849C97.9816 34.4001 97.6344 34.0787 97.092 34.0787H96.0194V35.6194Z" fill="white"/>
<path d="M103.904 33.3467V38.1214H103.219L100.633 34.7118V38.1214H99.8333V33.3467H100.571L103.103 36.6999V33.3467H103.903H103.904Z" fill="white"/>
<path d="M108.14 37.3808V38.1214H105.171V33.3467H108.06V34.0806H105.986V35.3281H107.874V36.0455H105.986V37.3808H108.138H108.14Z" fill="white"/>
<path d="M112.377 34.0773H110.917V38.1214H110.1V34.0773H108.641V33.3467H112.377V34.0773Z" fill="white"/>
<path d="M118.262 34.9239C118.262 35.8251 117.534 36.5011 116.565 36.5011H115.543V38.1214H114.726V33.3467H116.565C117.529 33.3467 118.262 34.0177 118.262 34.9239ZM117.431 34.9239C117.431 34.4434 117.058 34.0905 116.526 34.0905H115.543V35.7572H116.526C117.058 35.7572 117.431 35.4043 117.431 34.9239Z" fill="white"/>
<path d="M121.404 38.2109C119.892 38.2109 118.778 37.1473 118.778 35.7341C118.778 34.3209 119.892 33.2573 121.404 33.2573C122.915 33.2573 124.026 34.3176 124.026 35.7341C124.026 37.1506 122.913 38.2109 121.404 38.2109ZM123.195 35.7341C123.195 34.7484 122.43 34.0111 121.404 34.0111C120.378 34.0111 119.609 34.755 119.609 35.7341C119.609 36.7132 120.378 37.4571 121.404 37.4571C122.43 37.4571 123.195 36.7199 123.195 35.7341Z" fill="white"/>
<path d="M126.731 36.3533H125.786V38.1194H124.969V33.3447H126.907C127.865 33.3447 128.579 33.9743 128.579 34.8557C128.579 35.5067 128.175 36.0253 127.567 36.2423L128.715 38.1194H127.798L126.729 36.3533H126.731ZM125.786 35.6194H126.858C127.399 35.6194 127.748 35.298 127.748 34.849C127.748 34.4001 127.401 34.0787 126.858 34.0787H125.786V35.6194Z" fill="white"/>
<path d="M132.206 34.0823V35.4341H134.075V36.1515H132.206V38.1214H131.389V33.3467H134.26V34.0823H132.206Z" fill="white"/>
<path d="M135.144 33.3467H135.961V38.1214H135.144V33.3467Z" fill="white"/>
<path d="M140.096 35.633C140.542 35.8367 140.804 36.2724 140.804 36.7827C140.804 37.5349 140.129 38.1214 139.272 38.1214H137.229V33.3467H139.234C140.067 33.3467 140.678 33.8719 140.678 34.5743C140.678 34.9902 140.457 35.4076 140.098 35.633H140.096ZM139.183 34.0673H138.032V35.3099H139.183C139.578 35.3099 139.861 35.0415 139.861 34.6886C139.861 34.3357 139.573 34.0673 139.183 34.0673ZM139.226 37.3725C139.659 37.3725 139.972 37.0909 139.972 36.6966C139.972 36.3023 139.659 36.0223 139.226 36.0223H138.032V37.3709H139.226V37.3725Z" fill="white"/>
<path d="M143.566 36.3533H142.622V38.1194H141.805V33.3447H143.743C144.701 33.3447 145.415 33.9743 145.415 34.8557C145.415 35.5067 145.01 36.0253 144.402 36.2423L145.551 38.1194H144.634L143.565 36.3533H143.566ZM142.622 35.6194H143.694C144.235 35.6194 144.584 35.298 144.584 34.849C144.584 34.4001 144.237 34.0787 143.694 34.0787H142.622V35.6194Z" fill="white"/>
<path d="M149.356 37.0826H147.137L146.714 38.1214H145.846L147.847 33.3467H148.615L150.674 38.1214H149.788L149.358 37.0826H149.356ZM147.418 36.3818H149.071L148.239 34.3689L147.418 36.3818Z" fill="white"/>
<path d="M155.295 38.2107C153.783 38.2107 152.669 37.1471 152.669 35.7339C152.669 34.3207 153.783 33.2571 155.295 33.2571C156.806 33.2571 157.917 34.3174 157.917 35.7339C157.917 37.1504 156.804 38.2107 155.295 38.2107ZM157.086 35.7339C157.086 34.7481 156.321 34.0109 155.295 34.0109C154.269 34.0109 153.5 34.7548 153.5 35.7339C153.5 36.713 154.269 37.4569 155.295 37.4569C156.321 37.4569 157.086 36.7196 157.086 35.7339ZM155.404 31.8721H156.243L155.545 32.8413H154.937L155.404 31.8721Z" fill="white"/>
<path d="M162.397 34.9239C162.397 35.8251 161.67 36.5011 160.701 36.5011H159.679V38.1214H158.862V33.3467H160.701C161.665 33.3467 162.397 34.0177 162.397 34.9239ZM161.566 34.9239C161.566 34.4434 161.193 34.0905 160.661 34.0905H159.679V35.7572H160.661C161.193 35.7572 161.566 35.4043 161.566 34.9239Z" fill="white"/>
<path d="M166.486 34.0773H165.026V38.1214H164.209V34.0773H162.75V33.3467H166.486V34.0773Z" fill="white"/>
<path d="M167.272 33.3467H168.089V38.1214H167.272V33.3467Z" fill="white"/>
<path d="M169.037 35.7352C169.037 34.3071 170.123 33.2617 171.595 33.2617C172.773 33.2617 173.716 33.9658 173.977 35.041H173.15C172.911 34.4049 172.331 34.0205 171.595 34.0205C170.598 34.0205 169.868 34.7395 169.868 35.7369C169.868 36.7342 170.598 37.4483 171.595 37.4483C172.355 37.4483 172.944 37.0357 173.167 36.3598H173.996C173.737 37.4831 172.794 38.207 171.595 38.207C170.122 38.207 169.037 37.1617 169.037 35.7369V35.7352Z" fill="white"/>
<path d="M177.687 37.0826H175.468L175.044 38.1214H174.177L176.178 33.3467H176.946L179.005 38.1214H178.119L177.689 37.0826H177.687ZM175.749 36.3818H177.402L176.57 34.3689L175.749 36.3818Z" fill="white"/>
</svg>
